<svg width="220" height="220" viewBox="0 0 220 220" fill="none" xmlns="http://www.w3.org/2000/svg">
<circle cx="110" cy="110" r="110" fill="#2E94DD"/>
<circle cx="110" cy="110" r="104" fill="#45C2F4"/>
<circle cx="110" cy="110" r="98" fill="#F3F3F3"/>
<path d="M68.025 99.48V110.69H27.745V99.48H68.025ZM113.341 139L98.7107 113.16H92.4407V139H79.1407V72.69H104.031C109.161 72.69 113.531 73.6083 117.141 75.445C120.751 77.2183 123.442 79.6566 125.216 82.76C127.052 85.8 127.971 89.22 127.971 93.02C127.971 97.39 126.704 101.348 124.171 104.895C121.637 108.378 117.869 110.785 112.866 112.115L128.731 139H113.341ZM92.4407 103.185H103.556C107.166 103.185 109.857 102.33 111.631 100.62C113.404 98.8466 114.291 96.4083 114.291 93.305C114.291 90.265 113.404 87.9216 111.631 86.275C109.857 84.565 107.166 83.71 103.556 83.71H92.4407V103.185ZM149.5 93.97C151.21 91.5633 153.553 89.5683 156.53 87.985C159.57 86.3383 163.022 85.515 166.885 85.515C171.382 85.515 175.435 86.6233 179.045 88.84C182.718 91.0566 185.6 94.2233 187.69 98.34C189.843 102.393 190.92 107.112 190.92 112.495C190.92 117.878 189.843 122.66 187.69 126.84C185.6 130.957 182.718 134.155 179.045 136.435C175.435 138.715 171.382 139.855 166.885 139.855C163.022 139.855 159.602 139.063 156.625 137.48C153.712 135.897 151.337 133.902 149.5 131.495V164.08H136.2V86.37H149.5V93.97ZM177.335 112.495C177.335 109.328 176.67 106.605 175.34 104.325C174.073 101.982 172.363 100.208 170.21 99.005C168.12 97.8016 165.84 97.2 163.37 97.2C160.963 97.2 158.683 97.8333 156.53 99.1C154.44 100.303 152.73 102.077 151.4 104.42C150.133 106.763 149.5 109.518 149.5 112.685C149.5 115.852 150.133 118.607 151.4 120.95C152.73 123.293 154.44 125.098 156.53 126.365C158.683 127.568 160.963 128.17 163.37 128.17C165.84 128.17 168.12 127.537 170.21 126.27C172.363 125.003 174.073 123.198 175.34 120.855C176.67 118.512 177.335 115.725 177.335 112.495Z" fill="url(#paint0_linear_57_14)"/>
<defs>
<linearGradient id="paint0_linear_57_14" x1="-11.625" y1="41.9444" x2="107.908" y2="166.075" gradientUnits="userSpaceOnUse">
<stop stop-color="#2E94DD"/>
<stop offset="1" stop-color="#45C2F4"/>
</linearGradient>
</defs>
</svg>
