<svg width="24" height="18" viewBox="0 0 24 18" fill="none" xmlns="http://www.w3.org/2000/svg">
<path d="M16.4847 8.71313L22.6359 2.87525V14.4844L16.4847 8.71313ZM8.55836 9.70177L10.7184 11.7501C11.0575 12.0647 11.4995 12.2548 11.9825 12.2548H11.9995H11.9985H12.0125C12.4965 12.2548 12.9385 12.0636 13.2816 11.7468L13.2786 11.749L15.4386 9.70068L22.0049 15.8608H1.99508L8.55836 9.70177ZM1.98608 1.49115H22.0169L12.3955 10.6194C12.2873 10.7129 12.1534 10.7637 12.0155 10.7636H12.0015H12.0025H11.9885C11.8501 10.7638 11.7157 10.7126 11.6075 10.6183L11.6085 10.6194L1.98608 1.49115ZM1.36506 2.87415L7.51531 8.71204L1.36506 14.48V2.87415ZM22.966 0.20756C22.7259 0.0764694 22.4439 0 22.1449 0H1.85908C1.56923 7.56336e-05 1.28336 0.0737499 1.02404 0.215206L1.03504 0.209744C0.724604 0.377006 0.463167 0.635764 0.280266 0.95679C0.0973647 1.27782 0.00028736 1.64831 0 2.02644L0 15.3234C0.000529426 15.8615 0.196461 16.3774 0.544803 16.7579C0.893145 17.1385 1.36545 17.3525 1.85808 17.3531H22.1419C22.6346 17.3525 23.1069 17.1385 23.4552 16.7579C23.8035 16.3774 23.9995 15.8615 24 15.3234V2.02644C24 1.23225 23.581 0.544025 22.971 0.213022L22.96 0.20756H22.966Z" fill="white"/>
</svg>
