<svg width="24" height="24" viewBox="0 0 24 24" fill="none" xmlns="http://www.w3.org/2000/svg">
<path d="M22.6307 0H1.06816C0.549605 0 0.13066 0.418945 0.13066 0.9375V22.5C0.13066 23.0186 0.549605 23.4375 1.06816 23.4375H22.6307C23.1492 23.4375 23.5682 23.0186 23.5682 22.5V0.9375C23.5682 0.418945 23.1492 0 22.6307 0ZM22.6307 22.3151H16.2996V14.3613H19.3465L19.8035 10.8252H16.2996V8.56641C16.2996 7.54102 16.5838 6.84375 18.0516 6.84375H19.9236V3.67969C19.5984 3.63574 18.4881 3.53906 17.1932 3.53906C14.492 3.53906 12.6434 5.18848 12.6434 8.21484V10.8223H9.59062V14.3584H12.6463L12.5781 22.3151H1L1.06816 1.19406H22.6307V22.3151Z" fill="white"/>
</svg>
