<svg width="46" height="37" viewBox="0 0 46 37" fill="none" xmlns="http://www.w3.org/2000/svg">
<path d="M6.528 27.624V28.98H4.296V36H2.616V28.98H0.384V27.624H6.528ZM8.95378 30.384C9.16978 30.032 9.44978 29.756 9.79378 29.556C10.1458 29.356 10.5458 29.256 10.9938 29.256V31.02H10.5498C10.0218 31.02 9.62178 31.144 9.34978 31.392C9.08578 31.64 8.95378 32.072 8.95378 32.688V36H7.27378V29.352H8.95378V30.384ZM11.2133 32.652C11.2133 31.98 11.3453 31.384 11.6093 30.864C11.8813 30.344 12.2453 29.944 12.7013 29.664C13.1653 29.384 13.6813 29.244 14.2493 29.244C14.7453 29.244 15.1773 29.344 15.5453 29.544C15.9213 29.744 16.2213 29.996 16.4453 30.3V29.352H18.1373V36H16.4453V35.028C16.2293 35.34 15.9293 35.6 15.5453 35.808C15.1693 36.008 14.7333 36.108 14.2373 36.108C13.6773 36.108 13.1653 35.964 12.7013 35.676C12.2453 35.388 11.8813 34.984 11.6093 34.464C11.3453 33.936 11.2133 33.332 11.2133 32.652ZM16.4453 32.676C16.4453 32.268 16.3653 31.92 16.2053 31.632C16.0453 31.336 15.8293 31.112 15.5573 30.96C15.2853 30.8 14.9933 30.72 14.6813 30.72C14.3693 30.72 14.0813 30.796 13.8173 30.948C13.5533 31.1 13.3373 31.324 13.1693 31.62C13.0093 31.908 12.9293 32.252 12.9293 32.652C12.9293 33.052 13.0093 33.404 13.1693 33.708C13.3373 34.004 13.5533 34.232 13.8173 34.392C14.0893 34.552 14.3773 34.632 14.6813 34.632C14.9933 34.632 15.2853 34.556 15.5573 34.404C15.8293 34.244 16.0453 34.02 16.2053 33.732C16.3653 33.436 16.4453 33.084 16.4453 32.676ZM22.0702 34.452L23.7502 29.352H25.5382L23.0782 36H21.0382L18.5902 29.352H20.3902L22.0702 34.452ZM32.1818 32.532C32.1818 32.772 32.1658 32.988 32.1338 33.18H27.2738C27.3138 33.66 27.4818 34.036 27.7778 34.308C28.0738 34.58 28.4378 34.716 28.8698 34.716C29.4938 34.716 29.9378 34.448 30.2018 33.912H32.0138C31.8218 34.552 31.4538 35.08 30.9098 35.496C30.3658 35.904 29.6978 36.108 28.9058 36.108C28.2658 36.108 27.6898 35.968 27.1778 35.688C26.6737 35.4 26.2777 34.996 25.9897 34.476C25.7097 33.956 25.5697 33.356 25.5697 32.676C25.5697 31.988 25.7097 31.384 25.9897 30.864C26.2697 30.344 26.6618 29.944 27.1658 29.664C27.6698 29.384 28.2498 29.244 28.9058 29.244C29.5378 29.244 30.1018 29.38 30.5978 29.652C31.1018 29.924 31.4898 30.312 31.7618 30.816C32.0418 31.312 32.1818 31.884 32.1818 32.532ZM30.4418 32.052C30.4338 31.62 30.2778 31.276 29.9737 31.02C29.6698 30.756 29.2978 30.624 28.8578 30.624C28.4418 30.624 28.0898 30.752 27.8018 31.008C27.5218 31.256 27.3498 31.604 27.2858 32.052H30.4418ZM34.608 27.12V36H32.928V27.12H34.608Z" fill="#2E94DD"/>
<path d="M36.6398 28.56C36.3438 28.56 36.0958 28.468 35.8958 28.284C35.7038 28.092 35.6078 27.856 35.6078 27.576C35.6078 27.296 35.7038 27.064 35.8958 26.88C36.0958 26.688 36.3438 26.592 36.6398 26.592C36.9358 26.592 37.1798 26.688 37.3718 26.88C37.5718 27.064 37.6718 27.296 37.6718 27.576C37.6718 27.856 37.5718 28.092 37.3718 28.284C37.1798 28.468 36.9358 28.56 36.6398 28.56ZM37.4678 29.352V36H35.7878V29.352H37.4678ZM41.5997 36.108C40.9597 36.108 40.3837 35.968 39.8717 35.688C39.3597 35.4 38.9557 34.996 38.6597 34.476C38.3717 33.956 38.2277 33.356 38.2277 32.676C38.2277 31.996 38.3757 31.396 38.6717 30.876C38.9757 30.356 39.3877 29.956 39.9077 29.676C40.4277 29.388 41.0077 29.244 41.6477 29.244C42.2877 29.244 42.8677 29.388 43.3877 29.676C43.9077 29.956 44.3157 30.356 44.6117 30.876C44.9157 31.396 45.0677 31.996 45.0677 32.676C45.0677 33.356 44.9117 33.956 44.5997 34.476C44.2957 34.996 43.8797 35.4 43.3517 35.688C42.8317 35.968 42.2477 36.108 41.5997 36.108ZM41.5997 34.644C41.9037 34.644 42.1877 34.572 42.4517 34.428C42.7237 34.276 42.9397 34.052 43.0997 33.756C43.2597 33.46 43.3397 33.1 43.3397 32.676C43.3397 32.044 43.1717 31.56 42.8357 31.224C42.5077 30.88 42.1037 30.708 41.6237 30.708C41.1437 30.708 40.7397 30.88 40.4117 31.224C40.0917 31.56 39.9317 32.044 39.9317 32.676C39.9317 33.308 40.0877 33.796 40.3997 34.14C40.7197 34.476 41.1197 34.644 41.5997 34.644Z" fill="#45C2F4"/>
<path d="M21.4209 27.4351C13.4749 15.9158 12 14.7335 12 10.5C12 4.70099 16.701 0 22.5 0C28.299 0 33 4.70099 33 10.5C33 14.7335 31.5251 15.9158 23.5791 27.4351C23.0576 28.1883 21.9423 28.1883 21.4209 27.4351Z" fill="url(#paint0_linear_6_41)"/>
<path d="M25.7938 5.51818L23.6675 7.79839L18.0107 6.44362C17.9354 6.42563 17.8568 6.42781 17.7829 6.44995C17.709 6.47209 17.6424 6.5134 17.5899 6.56969L16.3713 7.87649C16.1735 8.08857 16.2355 8.43244 16.4955 8.56596L20.861 10.808L18.9473 12.8602L16.9845 12.6412C16.8472 12.6258 16.7111 12.6761 16.6176 12.7765L15.8736 13.5743C15.6799 13.782 15.7345 14.118 15.9849 14.257L17.3658 14.9571L18.7468 15.6572L20.3363 18.3148C20.4924 18.5548 20.8314 18.5859 21.025 18.3782L21.769 17.5803C21.8628 17.4798 21.9033 17.3407 21.8784 17.2049L21.523 15.2621L23.4367 13.2099L25.9776 17.4082C26.129 17.6582 26.4765 17.6962 26.6743 17.4842L27.8929 16.1774C27.9997 16.0629 28.0363 15.8993 27.9891 15.749L26.2432 10.2003L28.3696 7.9201C29.0272 7.21483 29.5791 5.46718 28.8677 4.80384C28.1564 4.14049 26.4515 4.81291 25.7938 5.51818Z" fill="white"/>
<defs>
<linearGradient id="paint0_linear_6_41" x1="22.5" y1="4" x2="22" y2="43.5" gradientUnits="userSpaceOnUse">
<stop stop-color="#2D93DD"/>
<stop offset="0.798868" stop-color="#0EBFF5" stop-opacity="0.299471"/>
<stop offset="1" stop-color="#00D1FF" stop-opacity="0"/>
</linearGradient>
</defs>
</svg>
