<svg width="220" height="220" viewBox="0 0 220 220" fill="none" xmlns="http://www.w3.org/2000/svg">
<circle cx="110" cy="110" r="110" fill="#2E94DD"/>
<circle cx="110" cy="110" r="104" fill="#45C2F4"/>
<circle cx="110" cy="110" r="98" fill="#F3F3F3"/>
<path d="M174.384 60.4464C163.458 57.5305 152.785 53.7415 142.466 49.1161C132.314 44.7123 122.514 39.5382 113.152 33.6393L110.5 32L107.896 33.6875C98.534 39.5864 88.734 44.7605 78.5821 49.1643C68.2464 53.7757 57.5566 57.5486 46.6161 60.4464L43 61.3625V101.573C43 166.132 108.234 190.288 108.861 190.529L110.5 191.107L112.139 190.529C112.814 190.529 178 166.18 178 101.573V61.3625L174.384 60.4464ZM152.35 92.5089L98.4946 144.821L68.0232 114.302C66.7445 113.023 66.0261 111.289 66.0261 109.48C66.0261 107.672 66.7445 105.938 68.0232 104.659C69.3019 103.38 71.0363 102.662 72.8446 102.662C74.653 102.662 76.3873 103.38 77.6661 104.659L98.6393 126.018L142.948 82.625C143.581 81.9918 144.333 81.4896 145.16 81.1469C145.988 80.8043 146.874 80.6279 147.77 80.6279C148.665 80.6279 149.552 80.8043 150.379 81.1469C151.206 81.4896 151.958 81.9918 152.591 82.625C153.224 83.2582 153.726 84.0098 154.069 84.8371C154.412 85.6644 154.588 86.551 154.588 87.4464C154.588 88.3419 154.412 89.2285 154.069 90.0558C153.726 90.883 153.224 91.6347 152.591 92.2679L152.35 92.5089Z" fill="url(#paint0_linear_58_15)"/>
<defs>
<linearGradient id="paint0_linear_58_15" x1="53" y1="17" x2="133" y2="184" gradientUnits="userSpaceOnUse">
<stop stop-color="#2E94DD"/>
<stop offset="0.662457" stop-color="#45C2F4"/>
</linearGradient>
</defs>
</svg>
