<svg width="23" height="28" viewBox="0 0 23 28" fill="none" xmlns="http://www.w3.org/2000/svg">
<path d="M9.42091 27.4351C1.47492 15.9157 0 14.7335 0 10.5C0 4.70097 4.70099 -2.28882e-05 10.5 -2.28882e-05C16.299 -2.28882e-05 21 4.70097 21 10.5C21 14.7335 19.5251 15.9157 11.5791 27.4351C11.0576 28.1883 9.9423 28.1883 9.42091 27.4351Z" fill="url(#paint0_linear_8_6901)"/>
<path d="M13.7938 5.51817L11.6675 7.79838L6.01071 6.4436C5.93536 6.42561 5.85676 6.42779 5.78286 6.44993C5.70897 6.47207 5.64241 6.51338 5.58992 6.56968L4.37131 7.87648C4.17354 8.08856 4.23549 8.43242 4.49548 8.56594L8.86097 10.808L6.94729 12.8602L4.98448 12.6412C4.8472 12.6258 4.71114 12.6761 4.61756 12.7765L3.87356 13.5743C3.67988 13.782 3.73454 14.118 3.98486 14.257L5.36582 14.9571L6.74679 15.6572L8.33625 18.3147C8.49242 18.5547 8.83137 18.5858 9.02504 18.3782L9.76904 17.5803C9.86281 17.4798 9.90331 17.3407 9.8784 17.2048L9.52304 15.2621L11.4367 13.2099L13.9776 17.4082C14.129 17.6582 14.4765 17.6962 14.6743 17.4842L15.8929 16.1774C15.9997 16.0628 16.0363 15.8993 15.9891 15.749L14.2432 10.2003L16.3696 7.92009C17.0272 7.21482 17.5791 5.46716 16.8677 4.80382C16.1564 4.14048 14.4515 4.8129 13.7938 5.51817Z" fill="white"/>
<defs>
<linearGradient id="paint0_linear_8_6901" x1="10.5" y1="3.99998" x2="10" y2="43.5" gradientUnits="userSpaceOnUse">
<stop stop-color="#2D93DD"/>
<stop offset="0.798868" stop-color="#0EBFF5" stop-opacity="0.299471"/>
<stop offset="1" stop-color="#00D1FF" stop-opacity="0"/>
</linearGradient>
</defs>
</svg>
