<svg width="24" height="27" viewBox="0 0 24 27" fill="none" xmlns="http://www.w3.org/2000/svg">
<path fill-rule="evenodd" clip-rule="evenodd" d="M17.4988 15.5983C17.1994 15.4367 15.7313 14.6579 15.458 14.5495C15.1847 14.4421 14.9858 14.389 14.7858 14.7122C14.5869 15.0332 14.0151 15.7599 13.8413 15.9746C13.6665 16.1904 13.4926 16.2165 13.1942 16.0559C12.8958 15.8933 11.9332 15.5538 10.7927 14.4562C9.90544 13.6016 9.30557 12.5463 9.13174 12.2231C8.9579 11.901 9.11264 11.7264 9.26236 11.5658C9.39701 11.4216 9.56079 11.1895 9.71051 11.0019C9.86022 10.8132 9.90946 10.6787 10.0089 10.4628C10.1094 10.2481 10.0592 10.0605 9.98382 9.89887C9.90946 9.73727 9.3126 8.15055 9.06341 7.50523C8.82125 6.87727 8.57507 6.96295 8.39219 6.95211C8.21736 6.94343 8.0184 6.94126 7.81945 6.94126C7.6205 6.94126 7.29695 7.02152 7.02364 7.34472C6.74932 7.66683 5.97863 8.44664 5.97863 10.0334C5.97863 11.619 7.04775 13.1515 7.19747 13.3673C7.34719 13.5821 9.30255 16.8379 12.2979 18.2337C13.0113 18.5656 13.567 18.7641 14.0001 18.9116C14.7155 19.1578 15.3666 19.1231 15.8811 19.0396C16.4538 18.9474 17.6475 18.2598 17.8967 17.5071C18.1449 16.7544 18.1449 16.1091 18.0705 15.9746C17.9962 15.8401 17.7972 15.7599 17.4978 15.5983H17.4988ZM12.0507 23.6273H12.0467C10.2676 23.6276 8.52118 23.1114 6.99048 22.1328L6.62875 21.9007L2.86874 22.9657L3.87255 19.0092L3.63642 18.6036C2.64179 16.8947 2.11543 14.9169 2.11814 12.8988C2.12015 6.9879 6.57549 2.17894 12.0547 2.17894C14.7074 2.17894 17.2014 3.29604 19.0764 5.322C20.0012 6.3161 20.7342 7.49826 21.233 8.80009C21.7318 10.1019 21.9864 11.4976 21.9823 12.9064C21.9803 18.8172 17.5249 23.6273 12.0507 23.6273V23.6273ZM20.5032 3.78301C19.3961 2.58014 18.0788 1.62639 16.6277 0.977021C15.1766 0.327652 13.6206 -0.00442095 12.0497 4.44428e-05C5.46417 4.44428e-05 0.102491 5.7862 0.100481 12.8977C0.0974296 15.1609 0.647475 17.385 1.69512 19.3454L0 26.0296L6.33434 24.2357C8.0866 25.2662 10.0502 25.8061 12.0457 25.8062H12.0507C18.6363 25.8062 23.9979 20.02 23.9999 12.9075C24.0048 11.2126 23.6983 9.53348 23.0981 7.96729C22.4978 6.40111 21.6159 4.97892 20.5032 3.78301" fill="white"/>
</svg>
